<svg xmlns="http://www.w3.org/2000/svg" viewBox="0 0 1000 310" class="sc-1k9inbr-0 iNbvyX"><g fill="none" fill-rule="evenodd"><path d="M0 0h1000v310H0z"></path><g fill-rule="nonzero"><path class="logo-line" fill="#00cea5" d="M537 307h453v-44H537z"></path><path class="logo-text" fill="#052962" d="M0 232h55.363v-84.007c0-9.83 2.044-17.372 6.153-22.6 4.1-5.23 9.935-7.85 17.526-7.85 14.147 0 21.225 9.431 21.225 28.293V232h55.363v-96.622c0-21.944-4.664-38.597-13.992-49.98-9.329-11.382-23.115-17.074-41.36-17.074-9.853 0-18.667 1.901-26.454 5.692-7.798 3.79-13.952 9.173-18.46 16.14V0H0zm306.723-40.86c-9.029 1.84-17.947 2.763-26.76 2.763-13.737 0-23.496-2.825-31.386-7.243-7.9-4.407-11.527-10.59-14.393-19.817h104.572c1.222-5.527 1.84-11.886 1.84-19.067 0-24.389-7.018-43.723-21.062-57.972-14.054-14.249-32.967-21.379-56.75-21.379-16.61 0-31.22 3.688-43.825 11.075-12.606 7.376-22.303 17.434-29.063 30.142-6.77 12.718-10.15 27.07-10.15 43.055 0 17.64 3.945 32.761 11.834 45.366 7.901 12.606 19.027 22.252 33.378 28.91 14.352 6.657 28.355 9.996 47.627 9.996 11.681 0 22.93-1.028 33.902-3.082 10.972-2.044 25.858-7.069 34.272-10.962l-.287-.822-14.895-36.258c-5.99 2.62-10.68 3.63-18.854 5.295zm-44.853-83.954c7.582 0 13.787 2.353 18.605 7.068 4.82 4.716 7.633 11.178 8.455 19.376v.01h-55.66c3.482-17.629 13.016-26.454 28.6-26.454zM469.16 76l-30.818 87.714L406.803 76h-58.217l60.241 146.35-4.92 11.38c-4.1 9.843-8.302 16.654-12.606 20.445-4.305 3.791-10.15 5.691-17.526 5.691-7.394 0-9.938-.23-14.633-1.637l-17.436 43.438c3.91 2.247 12.558 4.998 19.001 6.33 6.462 1.335 13.078 2.003 19.838 2.003 12.924 0 23.782-2.055 32.597-6.144 8.814-4.109 16.87-11.228 24.142-21.378 7.274-10.15 15.433-24.862 23.23-44.134L527.398 76zm156.298 111.41c-12.719 0-22.654-3.047-29.834-9.148-7.18-6.09-10.767-14.626-10.767-25.586 0-10.74 3.534-19.225 10.613-25.43 7.068-6.194 16.755-9.302 29.063-9.302 9.027 0 19.632 1.964 28.507 4.585l17.6-42.742c-6.305-3.145-14.402-5.952-23.66-8.053-10.048-2.278-19.889-3.408-29.525-3.408-17.434 0-32.803 3.72-46.138 11.167-13.335 7.437-23.577 17.578-30.758 30.392-7.18 12.824-10.766 27.284-10.766 43.413 0 17.164 3.74 32.05 11.22 44.656 7.477 12.616 17.843 22.281 31.065 28.994 13.222 6.723 28.446 10.078 45.664 10.078 10.048 0 19.94-1.19 29.68-3.563 7.944-1.942 15.443-4.71 21.69-7.818l-17.348-42.212c-8.848 2.378-18.42 3.976-26.306 3.976zm124.598 49.56c-13.745 0-26.043-3.433-36.912-10.305-10.869-6.873-19.477-16.664-25.837-29.372-6.359-12.708-9.534-27.368-9.534-43.98 0-15.574 3.072-29.782 9.226-42.593 6.154-12.81 14.866-23.063 26.136-30.758 11.27-7.684 24.09-11.537 38.442-11.537 9.431 0 18.143 2.055 26.145 6.154 7.994 4.11 14.342 9.841 19.068 17.218L797.406 76h51.973v156h-51.973l-.616-18.105c-4.716 7.386-11.126 13.068-19.222 17.074-8.085 3.997-17.259 6-27.512 6zm15.072-49.21c9.43 0 17.115-3.278 23.063-9.842 5.948-6.565 8.917-14.968 8.917-25.22 0-10.243-2.969-18.657-8.917-25.222-5.948-6.555-13.633-9.842-23.063-9.842s-17.177 3.287-23.218 9.842c-6.05 6.565-9.07 14.968-9.07 25.221s3.02 18.656 9.07 25.221c6.041 6.564 13.787 9.842 23.218 9.842zM1000 75.506l-3.065-1.469c-5.16-2.265-15.909-4.882-22.923-4.882-9.082 0-17.027 2.317-23.843 6.961-6.818 4.645-12.186 11.307-16.107 19.975l-.609-20.09H879.26l-.01 156h55.745v-68.392c0-14.037 2.73-24.63 8.202-31.747 5.473-7.127 13.572-10.685 24.31-10.685 5.697 0 9.173.424 13.097 1.51z"></path></g></g></svg>
